<svg version="1.2" xmlns="http://www.w3.org/2000/svg" viewBox="0 0 43 34" width="43" height="34">
	<title>Camera</title>
	<style>
		.s0 { fill: #e0decd } 
		.s1 { fill: #db5940 } 
		.s2 { fill: #d25133 } 
		.s3 { fill: #ffffff } 
		.s4 { fill: #cac8b7 } 
		.s5 { fill: #a6a495 } 
	</style>
	<g id="Camera">
		<path id="body" class="s0" d="m38.7 33.7h-34.3c-1.9 0-3.4-1.5-3.4-3.4v-20.6c0-1.7 1.2-3.1 2.9-3.4 0 0 0.2 0 0.5 0h2.9c7.4 0 5.1-6.3 10.3-6.3 1.7 0 4 0 4 0 0 0 2.3 0 4 0 5.1 0 2.8 6.3 10.3 6.3h2.8c0.4 0 0.6 0 0.6 0 1.6 0.3 2.8 1.7 2.8 3.4v20.6c0 1.9-1.5 3.4-3.4 3.4z"/>
		<path id="detail" class="s1" d="m1 14.3h41.1v11.4h-41.1z"/>
		<path id="light" class="s2" d="m38.1 8.6c1 0 1.8 0.7 1.8 1.7 0 0.9-0.8 1.7-1.8 1.7-0.9 0-1.7-0.8-1.7-1.7 0-1 0.8-1.7 1.7-1.7z"/>
		<path id="flash" class="s3" d="m18.1 1.7h6.9c1.2 0 2.3 2.9 2.3 2.9 0 0.9-0.8 1.7-1.7 1.7h-8c-1 0-1.7-0.8-1.7-1.7 0 0 1-2.9 2.2-2.9z"/>
		<path id="lens" class="s4" d="m21.6 9.1c5.7 0 10.3 4.6 10.3 10.3 0 5.7-4.6 10.3-10.3 10.3-5.7 0-10.3-4.6-10.3-10.3 0-5.7 4.6-10.3 10.3-10.3z"/>
		<path id="inner lens" class="s5" d="m21.6 12c4.1 0 7.4 3.3 7.4 7.4 0 4.1-3.3 7.5-7.4 7.5-4.1 0-7.5-3.4-7.5-7.5 0-4.1 3.4-7.4 7.5-7.4z"/>
		<path id="shoot button" class="s5" d="m6.1 4.6h2.3c1 0 1.7 0.7 1.7 1.7h-5.7c0-1 0.8-1.7 1.7-1.7z"/>
	</g>
</svg>